<mxfile host="app.diagrams.net" modified="2023-09-02T00:02:35.784Z" agent="Mozilla/5.0 (Windows NT 10.0; Win64; x64) AppleWebKit/537.36 (KHTML, like Gecko) Chrome/116.0.0.0 Safari/537.36" etag="-iVRbpMcsIC-E8hLNOM6" version="21.7.2" type="github">
  <diagram name="Página-1" id="lb2MOwUR2MJy2zvH3EcM">
    <mxGraphModel dx="875" dy="445" grid="1" gridSize="10" guides="1" tooltips="1" connect="1" arrows="1" fold="1" page="1" pageScale="1" pageWidth="827" pageHeight="1169" math="0" shadow="0">
      <root>
        <mxCell id="0" />
        <mxCell id="1" parent="0" />
        <mxCell id="7NhYJqwVJqV0VsxhA9z2-1" value="Interface Gráfica &lt;br&gt;Web" style="rounded=0;whiteSpace=wrap;html=1;" vertex="1" parent="1">
          <mxGeometry x="60" y="100" width="120" height="60" as="geometry" />
        </mxCell>
        <mxCell id="7NhYJqwVJqV0VsxhA9z2-2" value="Interface Gráfica Móvel&lt;br&gt;" style="rounded=0;whiteSpace=wrap;html=1;" vertex="1" parent="1">
          <mxGeometry x="280" y="100" width="120" height="60" as="geometry" />
        </mxCell>
        <mxCell id="7NhYJqwVJqV0VsxhA9z2-3" value="API Gateway&lt;br&gt;" style="rounded=0;whiteSpace=wrap;html=1;" vertex="1" parent="1">
          <mxGeometry x="140" y="280" width="240" height="60" as="geometry" />
        </mxCell>
        <mxCell id="7NhYJqwVJqV0VsxhA9z2-4" value="" style="endArrow=none;dashed=1;html=1;dashPattern=1 3;strokeWidth=2;rounded=0;" edge="1" parent="1">
          <mxGeometry width="50" height="50" relative="1" as="geometry">
            <mxPoint x="40" y="250" as="sourcePoint" />
            <mxPoint x="470" y="250" as="targetPoint" />
          </mxGeometry>
        </mxCell>
        <mxCell id="7NhYJqwVJqV0VsxhA9z2-6" value="Aplicações Clientes" style="text;html=1;strokeColor=none;fillColor=none;align=center;verticalAlign=middle;whiteSpace=wrap;rounded=0;" vertex="1" parent="1">
          <mxGeometry x="30" y="30" width="60" height="30" as="geometry" />
        </mxCell>
        <mxCell id="7NhYJqwVJqV0VsxhA9z2-8" value="Microsserviços&lt;br&gt;" style="text;html=1;strokeColor=none;fillColor=none;align=center;verticalAlign=middle;whiteSpace=wrap;rounded=0;" vertex="1" parent="1">
          <mxGeometry x="30" y="280" width="60" height="30" as="geometry" />
        </mxCell>
        <mxCell id="7NhYJqwVJqV0VsxhA9z2-10" value="" style="endArrow=classic;startArrow=classic;html=1;rounded=0;exitX=0.5;exitY=0;exitDx=0;exitDy=0;entryX=0.5;entryY=1;entryDx=0;entryDy=0;" edge="1" parent="1" source="7NhYJqwVJqV0VsxhA9z2-3" target="7NhYJqwVJqV0VsxhA9z2-2">
          <mxGeometry width="50" height="50" relative="1" as="geometry">
            <mxPoint x="300" y="220" as="sourcePoint" />
            <mxPoint x="350" y="170" as="targetPoint" />
          </mxGeometry>
        </mxCell>
        <mxCell id="7NhYJqwVJqV0VsxhA9z2-11" value="" style="endArrow=classic;startArrow=classic;html=1;rounded=0;entryX=0.566;entryY=1.028;entryDx=0;entryDy=0;entryPerimeter=0;exitX=0.432;exitY=-0.017;exitDx=0;exitDy=0;exitPerimeter=0;" edge="1" parent="1" source="7NhYJqwVJqV0VsxhA9z2-3" target="7NhYJqwVJqV0VsxhA9z2-1">
          <mxGeometry width="50" height="50" relative="1" as="geometry">
            <mxPoint x="270" y="250" as="sourcePoint" />
            <mxPoint x="320" y="200" as="targetPoint" />
          </mxGeometry>
        </mxCell>
        <mxCell id="7NhYJqwVJqV0VsxhA9z2-12" value="Microsserviços Compra&lt;br&gt;" style="rounded=0;whiteSpace=wrap;html=1;" vertex="1" parent="1">
          <mxGeometry x="40" y="400" width="120" height="60" as="geometry" />
        </mxCell>
        <mxCell id="7NhYJqwVJqV0VsxhA9z2-13" value="Microsserviços Venda&lt;br&gt;" style="rounded=0;whiteSpace=wrap;html=1;" vertex="1" parent="1">
          <mxGeometry x="200" y="400" width="120" height="60" as="geometry" />
        </mxCell>
        <mxCell id="7NhYJqwVJqV0VsxhA9z2-14" value="Microsserviços Envio&lt;br&gt;" style="rounded=0;whiteSpace=wrap;html=1;" vertex="1" parent="1">
          <mxGeometry x="354" y="400" width="120" height="60" as="geometry" />
        </mxCell>
        <mxCell id="7NhYJqwVJqV0VsxhA9z2-15" value="" style="shape=datastore;whiteSpace=wrap;html=1;" vertex="1" parent="1">
          <mxGeometry x="80" y="510" width="60" height="60" as="geometry" />
        </mxCell>
        <mxCell id="7NhYJqwVJqV0VsxhA9z2-16" value="" style="shape=datastore;whiteSpace=wrap;html=1;" vertex="1" parent="1">
          <mxGeometry x="390" y="510" width="60" height="60" as="geometry" />
        </mxCell>
        <mxCell id="7NhYJqwVJqV0VsxhA9z2-17" value="" style="shape=datastore;whiteSpace=wrap;html=1;" vertex="1" parent="1">
          <mxGeometry x="240" y="510" width="60" height="60" as="geometry" />
        </mxCell>
        <mxCell id="7NhYJqwVJqV0VsxhA9z2-19" value="" style="endArrow=none;html=1;rounded=0;entryX=0.544;entryY=1.002;entryDx=0;entryDy=0;entryPerimeter=0;" edge="1" parent="1" target="7NhYJqwVJqV0VsxhA9z2-12">
          <mxGeometry width="50" height="50" relative="1" as="geometry">
            <mxPoint x="110" y="510" as="sourcePoint" />
            <mxPoint x="160" y="470" as="targetPoint" />
          </mxGeometry>
        </mxCell>
        <mxCell id="7NhYJqwVJqV0VsxhA9z2-20" value="" style="endArrow=none;html=1;rounded=0;entryX=0.544;entryY=1.011;entryDx=0;entryDy=0;exitX=0.5;exitY=0;exitDx=0;exitDy=0;entryPerimeter=0;" edge="1" parent="1" source="7NhYJqwVJqV0VsxhA9z2-17" target="7NhYJqwVJqV0VsxhA9z2-13">
          <mxGeometry width="50" height="50" relative="1" as="geometry">
            <mxPoint x="260" y="510" as="sourcePoint" />
            <mxPoint x="310" y="460" as="targetPoint" />
          </mxGeometry>
        </mxCell>
        <mxCell id="7NhYJqwVJqV0VsxhA9z2-21" value="" style="endArrow=none;html=1;rounded=0;entryX=0.5;entryY=1;entryDx=0;entryDy=0;exitX=0.5;exitY=0;exitDx=0;exitDy=0;" edge="1" parent="1" source="7NhYJqwVJqV0VsxhA9z2-16" target="7NhYJqwVJqV0VsxhA9z2-14">
          <mxGeometry width="50" height="50" relative="1" as="geometry">
            <mxPoint x="410" y="510" as="sourcePoint" />
            <mxPoint x="460" y="460" as="targetPoint" />
          </mxGeometry>
        </mxCell>
        <mxCell id="7NhYJqwVJqV0VsxhA9z2-22" value="" style="endArrow=classic;startArrow=classic;html=1;rounded=0;" edge="1" parent="1">
          <mxGeometry width="50" height="50" relative="1" as="geometry">
            <mxPoint x="110" y="400" as="sourcePoint" />
            <mxPoint x="260" y="340" as="targetPoint" />
          </mxGeometry>
        </mxCell>
        <mxCell id="7NhYJqwVJqV0VsxhA9z2-25" value="" style="endArrow=classic;startArrow=classic;html=1;rounded=0;entryX=0.5;entryY=1;entryDx=0;entryDy=0;" edge="1" parent="1" source="7NhYJqwVJqV0VsxhA9z2-13" target="7NhYJqwVJqV0VsxhA9z2-3">
          <mxGeometry width="50" height="50" relative="1" as="geometry">
            <mxPoint x="240" y="460" as="sourcePoint" />
            <mxPoint x="290" y="410" as="targetPoint" />
          </mxGeometry>
        </mxCell>
        <mxCell id="7NhYJqwVJqV0VsxhA9z2-26" value="" style="endArrow=classic;startArrow=classic;html=1;rounded=0;exitX=0.5;exitY=0;exitDx=0;exitDy=0;entryX=0.5;entryY=1;entryDx=0;entryDy=0;" edge="1" parent="1" source="7NhYJqwVJqV0VsxhA9z2-14" target="7NhYJqwVJqV0VsxhA9z2-3">
          <mxGeometry width="50" height="50" relative="1" as="geometry">
            <mxPoint x="240" y="460" as="sourcePoint" />
            <mxPoint x="290" y="410" as="targetPoint" />
          </mxGeometry>
        </mxCell>
        <mxCell id="7NhYJqwVJqV0VsxhA9z2-27" value="Broker de Mensagens (Agente de Mensagens)" style="rounded=0;whiteSpace=wrap;html=1;" vertex="1" parent="1">
          <mxGeometry x="80" y="630" width="390" height="60" as="geometry" />
        </mxCell>
        <mxCell id="7NhYJqwVJqV0VsxhA9z2-30" value="" style="endArrow=classic;html=1;rounded=0;entryX=0.631;entryY=1.006;entryDx=0;entryDy=0;entryPerimeter=0;exitX=0.396;exitY=-0.028;exitDx=0;exitDy=0;exitPerimeter=0;" edge="1" parent="1" source="7NhYJqwVJqV0VsxhA9z2-27" target="7NhYJqwVJqV0VsxhA9z2-12">
          <mxGeometry width="50" height="50" relative="1" as="geometry">
            <mxPoint x="240" y="550" as="sourcePoint" />
            <mxPoint x="290" y="500" as="targetPoint" />
          </mxGeometry>
        </mxCell>
        <mxCell id="7NhYJqwVJqV0VsxhA9z2-31" value="" style="endArrow=classic;html=1;rounded=0;entryX=0.551;entryY=-0.028;entryDx=0;entryDy=0;entryPerimeter=0;" edge="1" parent="1" source="7NhYJqwVJqV0VsxhA9z2-14" target="7NhYJqwVJqV0VsxhA9z2-27">
          <mxGeometry width="50" height="50" relative="1" as="geometry">
            <mxPoint x="240" y="550" as="sourcePoint" />
            <mxPoint x="300" y="620" as="targetPoint" />
          </mxGeometry>
        </mxCell>
      </root>
    </mxGraphModel>
  </diagram>
</mxfile>
